Z:\Users\SGilon\Mono\output\case_001_STS\subject3\Session0\Cam3\STS1\OpenSim\Simulations\subject3_STS_3\OpenSimData\Dynamics\subject3_STS_3\GRF_resultant_subject3_STS_3_case_001_STS.mot
version=1
nRows=23
nColumns=19
inDegrees=yes
endheader 
time	ground_force_right_vx	ground_force_right_vy	ground_force_right_vz	ground_force_right_px	ground_force_right_py	ground_force_right_pz	ground_torque_right_x	ground_torque_right_y	ground_torque_right_z	ground_force_left_vx	ground_force_left_vy	ground_force_left_vz	ground_force_left_px	ground_force_left_py	ground_force_left_pz	ground_torque_left_x	ground_torque_left_y	ground_torque_left_z	
          6.81000000	        -25.48286173	        356.61763630	        -15.84629367	         -0.22213984	          0.00000000	         -0.43574907	          0.00000000	         -0.18468393	          0.00000000	        -23.95597299	        260.69316420	         -6.32126516	         -0.23332106	          0.00000000	         -0.76025759	          0.00000000	          0.35634296	          0.00000000	
          6.83000000	        -22.85188047	        344.02749597	        -15.75308587	         -0.22570262	          0.00000000	         -0.43674801	          0.00000000	         -0.17216386	          0.00000000	        -19.83263301	        248.33225206	         -5.83326773	         -0.23642867	          0.00000000	         -0.75944145	          0.00000000	          0.31054288	          0.00000000	
          6.85000000	        -21.91923080	        359.49022078	        -17.51813230	         -0.22801478	          0.00000000	         -0.43728885	          0.00000000	         -0.17529895	          0.00000000	        -19.29370566	        258.01918158	         -4.78097845	         -0.23840595	          0.00000000	         -0.75894351	          0.00000000	          0.29953089	          0.00000000	
          6.87000000	        -22.07423253	        387.63647038	        -20.41488600	         -0.22883304	          0.00000000	         -0.43737967	          0.00000000	         -0.21727186	          0.00000000	        -20.51485282	        280.07777787	         -2.77483414	         -0.23904333	          0.00000000	         -0.75871643	          0.00000000	          0.29635916	          0.00000000	
          6.89000000	        -22.25384535	        410.89158855	        -23.19176189	         -0.22864241	          0.00000000	         -0.43726017	          0.00000000	         -0.31833512	          0.00000000	        -22.20544409	        302.03693093	         -0.15835145	         -0.23885840	          0.00000000	         -0.75869745	          0.00000000	          0.28508136	          0.00000000	
          6.91000000	        -21.64589223	        412.77100211	        -24.51746236	         -0.22822852	          0.00000000	         -0.43717100	          0.00000000	         -0.45437140	          0.00000000	        -22.86415034	        310.74694581	          2.42001774	         -0.23859409	          0.00000000	         -0.75876976	          0.00000000	          0.25153420	          0.00000000	
          6.93000000	        -19.97969928	        392.02175760	        -23.83196661	         -0.22846076	          0.00000000	         -0.43721340	          0.00000000	         -0.54345387	          0.00000000	        -22.02587891	        304.28826168	          4.31763926	         -0.23882971	          0.00000000	         -0.75886877	          0.00000000	          0.18518206	          0.00000000	
          6.95000000	        -17.67665568	        361.39314075	        -22.06053717	         -0.22957345	          0.00000000	         -0.43735833	          0.00000000	         -0.56906983	          0.00000000	        -20.38435268	        291.68788557	          5.79759900	         -0.23979145	          0.00000000	         -0.75898833	          0.00000000	          0.09390870	          0.00000000	
          6.97000000	        -15.22684244	        331.55523930	        -20.10433351	         -0.23124592	          0.00000000	         -0.43750093	          0.00000000	         -0.55348030	          0.00000000	        -18.67460145	        281.13349869	          7.26384792	         -0.24126978	          0.00000000	         -0.75914953	          0.00000000	         -0.00340589	          0.00000000	
          6.99000000	        -12.89664066	        305.05864644	        -18.39505904	         -0.23317663	          0.00000000	         -0.43755488	          0.00000000	         -0.50766106	          0.00000000	        -17.02527560	        274.94269698	          9.04252788	         -0.24291184	          0.00000000	         -0.75937440	          0.00000000	         -0.09567243	          0.00000000	
          7.01000000	        -10.72668403	        280.49778505	        -16.98324877	         -0.23528308	          0.00000000	         -0.43751218	          0.00000000	         -0.43186367	          0.00000000	        -15.33186119	        271.96885813	         11.18447475	         -0.24450073	          0.00000000	         -0.75967942	          0.00000000	         -0.17884065	          0.00000000	
          7.03000000	         -8.68967084	        256.15652257	        -15.73077287	         -0.23768467	          0.00000000	         -0.43740520	          0.00000000	         -0.32647417	          0.00000000	        -13.50245625	        270.18257003	         13.49876351	         -0.24602181	          0.00000000	         -0.76007352	          0.00000000	         -0.25119065	          0.00000000	
          7.05000000	         -6.72003859	        231.40638114	        -14.47811708	         -0.24059532	          0.00000000	         -0.43725487	          0.00000000	         -0.19961133	          0.00000000	        -11.56164800	        268.05083674	         15.67020890	         -0.24759468	          0.00000000	         -0.76056125	          0.00000000	         -0.31062626	          0.00000000	
          7.07000000	         -4.74662225	        206.82817861	        -12.99829888	         -0.24422005	          0.00000000	         -0.43705857	          0.00000000	         -0.06846603	          0.00000000	         -9.66858316	        265.16001815	         17.28030656	         -0.24936064	          0.00000000	         -0.76114790	          0.00000000	         -0.35723899	          0.00000000	
          7.09000000	         -2.71332520	        183.86888084	        -11.14387013	         -0.24862864	          0.00000000	         -0.43680958	          0.00000000	          0.04342218	          0.00000000	         -8.06683736	        262.29259908	         18.03417256	         -0.25138600	          0.00000000	         -0.76183523	          0.00000000	         -0.39349311	          0.00000000	
          7.11000000	         -0.60973909	        164.29620157	         -8.89845553	         -0.25359495	          0.00000000	         -0.43652021	          0.00000000	          0.11759765	          0.00000000	         -7.00233545	        261.02447098	         17.84401034	         -0.25361312	          0.00000000	         -0.76261776	          0.00000000	         -0.42364804	          0.00000000	
          7.13000000	          1.49688286	        149.71467813	         -6.37253700	         -0.25851496	          0.00000000	         -0.43623125	          0.00000000	          0.15055884	          0.00000000	         -6.63990993	        263.16740386	         16.84228867	         -0.25586340	          0.00000000	         -0.76348034	          0.00000000	         -0.45297329	          0.00000000	
          7.15000000	          3.54668067	        141.14867592	         -3.64921470	         -0.26264514	          0.00000000	         -0.43597986	          0.00000000	          0.15446959	          0.00000000	         -7.05917524	        270.31517626	         15.27499331	         -0.25789651	          0.00000000	         -0.76440148	          0.00000000	         -0.48759739	          0.00000000	
          7.17000000	          5.31095481	        138.80642814	         -0.82458844	         -0.26561134	          0.00000000	         -0.43575778	          0.00000000	          0.14395671	          0.00000000	         -8.08506980	        283.45319780	         13.43354105	         -0.25950037	          0.00000000	         -0.76535753	          0.00000000	         -0.53352955	          0.00000000	
          7.19000000	          6.87970522	        142.28520796	          2.21722916	         -0.26750272	          0.00000000	         -0.43551393	          0.00000000	          0.12691771	          0.00000000	         -9.69679196	        302.52667170	         11.39374001	         -0.26059084	          0.00000000	         -0.76632891	          0.00000000	         -0.59767058	          0.00000000	
          7.21000000	          8.01258142	        150.74987754	          5.42603954	         -0.26857632	          0.00000000	         -0.43521380	          0.00000000	          0.10313064	          0.00000000	        -11.62409075	        325.91560646	          9.22397081	         -0.26123303	          0.00000000	         -0.76728982	          0.00000000	         -0.68319870	          0.00000000	
          7.23000000	          9.00002525	        162.73869178	          8.66101582	         -0.26902940	          0.00000000	         -0.43485430	          0.00000000	          0.06960951	          0.00000000	        -13.22455329	        350.09877432	          6.93314571	         -0.26161226	          0.00000000	         -0.76820690	          0.00000000	         -0.78390406	          0.00000000	
          7.25000000	          7.65874601	        175.99940107	         11.50021723	         -0.26916097	          0.00000000	         -0.43447911	          0.00000000	          0.02473672	          0.00000000	        -15.41629666	        370.41057272	          4.34689793	         -0.26196202	          0.00000000	         -0.76904346	          0.00000000	         -0.87911431	          0.00000000	
